<?xml version="1.0" encoding="UTF-8"?>
<svg width="1200pt" height="1200pt" version="1.1" viewBox="0 0 1200 1200" xmlns="http://www.w3.org/2000/svg">
 <path d="m865.36 1072.5c-7.5469 0-14.391-4.9688-16.453-12.516-36.703-132.32-57.609-264.19-61.875-391.87-3.4219-102.19-85.547-182.39-187.03-182.39s-183.61 80.062-187.03 182.39c-4.2656 127.74-25.031 259.55-61.875 391.87-2.5781 9.0938-12 14.391-21.094 12-9.0938-2.5781-14.391-12-12-21.094 36-129.74 56.391-258.84 60.703-384 4.125-120.84 101.3-215.48 221.29-215.48 120 0 217.22 94.641 221.29 215.48 4.2656 124.97 24.703 254.26 60.703 383.81 2.5781 9.0938-2.7656 18.516-12 21.094-1.5469 0.32812-3.0938 0.70312-4.6406 0.70312z" fill="#003763"/>
 <path d="m600 417.1c-79.875 0-144.71-64.969-144.71-144.71s64.969-144.71 144.71-144.71 144.71 64.969 144.71 144.71-64.969 144.71-144.71 144.71zm0-255.24c-60.844 0-110.39 49.547-110.39 110.39s49.547 110.39 110.39 110.39 110.39-49.547 110.39-110.39-49.547-110.39-110.39-110.39z" fill="#003763"/>
 <path d="m964.45 593.16c-8.5781 0-16.125-6.5156-16.969-15.234-1.0312-9.4219 5.8125-17.812 15.234-18.844 62.578-6.8438 110.06-29.812 141.24-68.578 36.328-44.766 44.062-100.97 44.578-137.16-58.266 55.031-126.19 102-217.55 108.7-1.7344 0-87.094 2.5781-125.16 16.125-4.6406 1.7344-10.266 3.75-15.234 6.5156-8.25 4.6406-18.703 1.5469-23.297-6.8438-4.6406-8.3906-1.5469-18.703 6.8438-23.297 7.2188-3.9375 14.25-6.7031 20.25-8.7656 43.359-15.422 131.16-17.812 134.9-18 93.938-6.8438 162.32-64.266 222.19-125.29 4.6406-4.6406 11.297-6.3281 17.484-4.2656s10.641 7.2188 11.672 13.734c0.70312 4.7812 17.297 117.42-50.062 200.39-37.219 45.938-92.391 73.219-164.26 80.906h-1.875z" fill="#003763"/>
 <path d="m934.45 710.39c-7.875 0-15.609-0.1875-22.641-0.32812-9.4219-0.32812-16.781-8.25-16.641-17.672 0.32812-9.4219 8.25-17.297 17.672-16.641 28.125 0.84375 64.969 0.84375 99.094-8.25 23.484-6.1875 56.25-19.547 78.703-47.812 19.359-24.328 29.156-70.266 10.641-111.23-3.9375-8.5781 0-18.844 8.5781-22.641 8.5781-3.9375 18.703 0 22.641 8.5781 25.219 56.062 9.75 115.36-15.094 146.76-28.266 35.672-68.25 52.125-96.844 59.672-29.484 7.875-60 9.75-86.391 9.75z" fill="#003763"/>
 <path d="m886.78 841.36c-7.875 0-14.906-5.4844-16.781-13.359-2.0625-9.2344 3.75-18.328 13.031-20.391 16.781-3.75 32.25-10.266 46.125-19.359 34.125-22.453 61.547-65.484 66.844-104.77 1.2188-9.4219 9.9375-15.938 19.219-14.766 9.4219 1.2188 15.938 9.9375 14.766 19.219-6.5156 49.031-39.422 100.78-81.938 128.76-17.297 11.484-36.703 19.547-57.422 24.188-1.2188 0.32813-2.5781 0.32813-3.75 0.32813z" fill="#003763"/>
 <path d="m235.55 593.16h-1.875c-71.812-7.875-127.03-35.156-164.26-81.094-67.359-82.969-50.719-195.61-50.062-200.26 1.0312-6.3281 5.4844-11.672 11.672-13.734 6.1875-1.875 12.844-0.32812 17.484 4.2656 59.812 61.031 128.39 118.45 223.03 125.29 2.9062 0 90.844 2.5781 134.06 17.812 6.1875 2.25 13.219 4.9688 20.391 8.9062 8.25 4.4531 11.297 14.906 6.8438 23.297-4.4531 8.3906-14.906 11.297-23.297 6.8438-4.9688-2.7656-10.641-4.9688-15.422-6.7031-38.062-13.547-123.42-15.938-124.26-15.938-92.062-6.7031-159.94-53.672-218.39-108.7 0.70312 36.188 8.3906 92.578 44.578 137.16 31.359 38.766 78.844 61.734 141.24 68.578 9.4219 1.0312 16.266 9.4219 15.234 18.844-1.0312 8.7656-8.3906 15.234-16.969 15.234z" fill="#003763"/>
 <path d="m265.55 710.39c-26.391 0-56.906-1.875-86.391-9.75-28.453-7.5469-68.391-24-96.844-59.672-25.031-31.359-40.453-90.703-15.094-146.76 3.9375-8.5781 14.062-12.516 22.641-8.5781s12.516 14.062 8.5781 22.641c-18.516 40.969-8.5781 87.094 10.641 111.23 22.453 28.266 55.219 41.672 78.844 47.812 34.125 9.0938 70.781 9.0938 99.094 8.25 9.0938-0.84375 17.297 7.0312 17.672 16.641 0.32812 9.4219-7.0312 17.297-16.641 17.672-7.0312 0.1875-14.578 0.32812-22.641 0.32812z" fill="#003763"/>
 <path d="m313.22 841.36c-1.2188 0-2.3906 0-3.75-0.32812-20.906-4.6406-40.125-12.844-57.422-24.188-42.516-27.938-75.422-79.734-81.938-128.76-1.2188-9.4219 5.2969-18 14.766-19.219 9.4219-1.3594 18 5.2969 19.219 14.766 5.2969 39.234 32.766 82.266 66.844 104.77 13.875 9.0938 29.297 15.609 46.125 19.359 9.2344 2.0625 15.094 11.156 13.031 20.391-1.7344 8.0625-8.9062 13.359-16.781 13.359z" fill="#003763"/>
</svg>
