<?xml version="1.0" encoding="UTF-8"?>
<svg width="1200pt" height="1200pt" version="1.1" viewBox="0 0 1200 1200" xmlns="http://www.w3.org/2000/svg">
 <path d="m44.625 1038.5c1.4062 0.1875 2.8125 0.28125 4.2188 0.28125 6.7969 0 13.359-2.3906 19.453-7.125 14.25-11.062 26.484-36.141 36.516-74.953 9.4688 12.047 20.203 18.141 32.016 18.141 20.438 0 36.984-19.922 50.156-60.609 9.7031 10.031 19.828 15.094 30.375 15.094 2.625 0 5.25-0.32812 7.9219-0.9375 23.578-5.5312 39.703-35.484 49.172-91.453 10.641 9.8438 21.281 14.812 31.828 14.812 3.4219 0 6.8438-0.51562 10.219-1.5469 23.812-7.2656 38.859-41.953 45.844-105.84 5.9531 8.6719 13.359 16.781 22.078 20.766 3.9844 1.8281 8.0625 2.7188 12.141 2.7188 3.2812 0 6.5156-0.60938 9.7031-1.7812 26.016-9.7969 24.141-60.047 21.141-86.953 30.562 7.4062 64.078 9.1875 92.531 8.8125 18.703-0.28125 35.859-9.7969 45.891-25.547 10.031-15.703 11.438-35.297 3.7969-52.312-32.953-73.547-83.766-180.52-138.37-272.48-70.5-118.59-125.76-176.29-168.98-176.29-122.34 0-213.74 274.74-236.68 400.08-20.297 111.05-45.188 402.74-1.125 463.78 5.625 7.7344 12.422 12.234 20.156 13.359zm144.24-699.52c1.125 1.5469 2.3906 3 3.8438 4.3594 3.7031 3.4219 8.1094 5.3906 12.984 6.2812-9.9844 23.391-11.766 41.156-5.4844 53.859-9.5156 22.828-43.031 106.73-45.75 163.03-11.484 13.078-30.562 31.266-43.031 24.984-0.89062-0.46875-3.6094-1.8281-5.3906-7.4062-12.984-40.734 46.781-173.48 82.828-245.11zm74.016 388.36c-3.3281 0-6-1.3125-8.625-4.3125-18.562-21.047-16.031-95.297-12.188-137.68 3.3281 1.0781 6.6562 1.5938 9.9375 1.5938 25.266 0 49.266-29.203 64.312-52.312 0.98438 8.0625 2.1562 16.078 3.7031 23.953-6.6562 68.625-29.203 168.74-57.141 168.74zm-62.109 52.594c-2.6719 0-4.875-1.0312-7.0781-3.2812-11.531-11.953-14.719-49.547-14.016-70.781 5.625-35.672 8.9531-68.531 10.359-84.188 10.5-0.79688 20.953-7.0781 31.453-18.984-2.0625 31.781-2.8125 76.5 5.9062 107.3-1.0781 28.641-10.172 69.938-26.625 69.938zm13.922-361.69c6 3.1406 12.797 4.4531 20.109 4.4531 2.8594 0 5.7656-0.23437 8.7188-0.60937-4.5 14.859-11.156 38.391-16.172 62.906-7.7812 38.016-9 64.641-3.4688 81.094-15 26.062-29.344 39.188-39.703 36.047-2.0625-0.60937-5.1094-2.0625-7.5-7.125-14.766-31.688 18.891-129.28 38.016-176.76zm97.406-24.469c0.70312 11.672 0.65625 26.438 0.5625 43.219-0.09375 19.922-0.23438 42.047 0.9375 64.594-12.516 24.234-40.734 66.281-61.453 66.281-1.7812 0-3.5625-0.32813-5.2031-0.98438-1.5938-0.65625-15.141-8.2969-0.89062-77.859 6.3281-30.844 15.562-60.938 19.125-72.094 17.906-6.1406 35.25-15.891 46.922-23.156zm-93.656 3.2344c-5.8594-7.7812-2.5312-25.641 9.0469-49.266 24.234-6.7969 51.891-26.672 67.828-39.328 6.3281 19.828 11.484 42.328 14.531 64.125-26.625 17.859-77.109 43.359-91.406 24.469zm-12.844-67.734c-4.9688-4.5938-4.7344-16.078 0.70312-30.047 10.312-26.438 34.641-51.422 50.062-51.422 10.734 0 22.266 17.016 32.156 41.625-33.047 27.281-72.797 49.172-82.922 39.844zm-90.797 282.52c0.70312 0.046876 1.3594 0.14063 2.0625 0.14063 11.859 0 24.891-6.5625 39.094-19.641 0.84375 3.9844 1.9688 7.5938 3.4688 10.828 2.8125 6.0469 6.8906 10.734 11.953 13.922-1.5 16.641-6 63-14.391 108.84-19.172 105.19-40.172 108.23-42.516 108.23-1.0781 0-2.25-0.28125-3.9375-2.25-19.406-23.062-8.1562-143.02 4.2656-220.08zm21.984 344.06c-10.781 0-19.875-13.172-25.969-25.359 4.6875-22.734 8.7656-49.078 12.328-78.891 17.953-6.4688 32.484-33.844 44.625-84.281 2.8594 8.8594 6.75 16.875 12.188 22.547 3.1406 3.2344 6.6562 5.625 10.5 7.125-6.75 66.984-27.516 158.86-53.672 158.86zm84.141-45.984c-8.5781 2.0156-17.859-3.9844-27.609-17.766 1.0312-4.0312 2.0156-8.25 3-12.609 7.6406-33.984 11.672-67.453 13.219-81.844 20.719-6.4219 29.906-35.438 33.891-58.641 5.5781 4.8281 12.234 7.3594 19.453 7.3594 0.28125 0 0.5625-0.046876 0.79688-0.046876-1.4531 67.875-14.906 157.03-42.75 163.55zm89.953-77.812c-11.484 3.5156-23.906-7.9219-33-19.359 3.8906-32.297 4.7344-61.734 4.9219-73.359 16.688-12.609 30.375-42.281 41.438-89.719 3.75-16.078 6.7031-32.016 8.9531-45.984 3.8906 9.2344 8.5312 18 14.062 26.016 2.9531 79.453-6.2812 193.22-36.375 202.4zm88.641-83.719c-2.3438 0.89062-4.5469 0.75-7.125-0.42188-10.875-4.9688-22.078-25.734-27.141-38.859 1.2656-22.031 1.5-42.609 1.4062-57.797 11.438 9.5156 25.453 16.734 40.781 22.125 4.7344 33.375 2.8594 70.875-7.9219 74.953zm-355.18-183.56c11.25-61.5 39.797-159.42 78.188-239.58 31.688-66.094 81.656-144.89 139.74-144.89 58.641 0 167.06 163.6 289.92 437.63 5.0625 11.344 4.1719 23.812-2.4844 34.266-6.7031 10.5-17.672 16.594-30.094 16.781-49.734 0.70312-115.69-5.3438-146.81-37.969-41.906-43.922-41.438-130.64-41.109-193.92 0.09375-19.688 0.1875-36.703-0.98437-49.875-3.0469-33.469-24.562-158.44-74.344-158.44-26.578 0-55.875 33-67.781 63.562-1.875 4.7812-3.2344 9.3281-4.1719 13.688-14.719 27.797-115.97 222.66-96.516 283.87 1.9219 6 4.9219 10.828 8.9062 14.438-2.3906 14.953-8.7188 56.344-12.562 100.17-9.9375 113.81 6.4219 133.26 11.812 139.64 2.3906 2.8125 5.1094 5.0156 8.0625 6.5156-10.875 90.609-28.078 150.94-47.484 165.94-4.2188 3.2812-7.3594 3.2812-9.3281 3-2.3906-0.32812-4.875-2.25-7.3125-5.625-35.859-49.641-18.375-324.84 4.3594-449.21zm893.39-403.5c-43.219 0-98.438 57.703-168.94 176.39-54.609 91.969-105.38 198.94-138.37 272.48-7.6406 17.016-6.1875 36.562 3.7969 52.312 10.031 15.75 27.188 25.312 45.891 25.547 28.453 0.375 61.969-1.4062 92.531-8.8125-3 26.906-4.875 77.156 21.141 86.953 3.1406 1.1719 6.4219 1.7812 9.7031 1.7812 4.0781 0 8.1562-0.9375 12.141-2.7188 8.7188-4.0312 16.172-12.141 22.078-20.766 7.0312 63.891 22.078 98.578 45.844 105.84 3.4219 1.0312 6.7969 1.5469 10.219 1.5469 10.547 0 21.188-4.9688 31.828-14.812 9.4219 55.922 25.594 85.922 49.172 91.453 2.6719 0.60938 5.2969 0.9375 7.9219 0.9375 10.547 0 20.672-5.0625 30.375-15.094 13.219 40.688 29.719 60.609 50.156 60.609 11.812 0 22.547-6.0938 32.016-18.141 10.078 38.812 22.266 63.891 36.516 74.953 6.0938 4.7344 12.609 7.125 19.453 7.125 1.4062 0 2.8125-0.09375 4.2188-0.28125 7.7344-1.0781 14.484-5.5781 20.109-13.359 44.062-61.031 19.172-352.74-1.125-463.78-22.922-125.44-114.33-400.18-236.68-400.18zm-130.13 586.64c-2.5781 1.1719-4.7812 1.3125-7.125 0.42188-10.922-4.125-12.75-41.016-7.9219-74.953 15.375-5.3906 29.344-12.562 40.781-22.125-0.09375 15.188 0.1875 35.766 1.4062 57.797-5.0625 13.078-16.266 33.844-27.141 38.859zm81.516 84.141c-30.094-9.1875-39.281-122.9-36.328-202.45 5.5312-8.0156 10.125-16.734 14.062-26.016 2.25 13.969 5.2031 29.906 8.9531 45.984 11.062 47.438 24.75 77.109 41.438 89.719 0.1875 11.672 1.0312 41.062 4.9219 73.359-9.1406 11.438-21.562 22.875-33.047 19.406zm118.17-488.76c1.4531-1.3125 2.7188-2.7656 3.8438-4.3594 36 71.672 95.812 204.42 82.828 245.16-1.7812 5.5781-4.5 6.9375-5.3906 7.4062-12.516 6.2812-31.547-11.953-43.031-24.984-2.7188-56.297-36.234-140.21-45.75-163.03 6.2812-12.703 4.5-30.469-5.4844-53.859 4.875-0.9375 9.2812-2.9062 12.984-6.3281zm82.125 488.58c-1.6406 1.9688-2.8594 2.25-3.9375 2.25-2.3438 0-23.344-3.0469-42.516-108.23-8.3438-45.844-12.891-92.203-14.391-108.84 5.0156-3.1875 9.0938-7.875 11.953-13.922 1.5-3.2344 2.625-6.8438 3.4688-10.828 14.203 13.078 27.234 19.641 39.094 19.641 0.70312 0 1.3594-0.09375 2.0625-0.14062 12.469 77.062 23.719 197.02 4.2656 220.08zm-83.156-55.219c-2.2031 2.2969-4.3594 3.2812-7.0781 3.2812-16.406 0-25.547-41.297-26.672-69.938 8.7188-30.797 8.0156-75.562 5.9062-107.3 10.547 11.906 20.953 18.188 31.453 18.984 1.4531 15.656 4.7812 48.516 10.359 84.188 0.75 21.234-2.3906 58.828-13.969 70.781zm-126.28-218.06c1.5-7.875 2.7188-15.891 3.7031-23.953 15.047 23.109 39.047 52.312 64.312 52.312 3.2812 0 6.6094-0.51562 9.9844-1.5938 4.5469 49.172 4.7812 118.41-12.188 137.68-2.625 3-5.2969 4.3125-8.625 4.3125-27.984 0-50.531-100.12-57.188-168.74zm7.3594-121.6c-0.09375-16.781-0.1875-31.547 0.5625-43.219 11.625 7.2656 29.016 17.016 46.969 23.156 3.5625 11.156 12.797 41.25 19.125 72.094 14.25 69.562 0.70312 77.25-0.89062 77.859-20.906 8.4375-53.109-38.953-66.703-65.297 1.1719-22.547 1.0781-44.672 0.9375-64.594zm97.969-18.75c19.125 47.484 52.781 145.08 38.016 176.76-2.3906 5.1094-5.3906 6.5156-7.5 7.125-10.359 3.1406-24.703-9.9844-39.703-36.047 5.5312-16.453 4.3125-43.078-3.4688-81.094-5.0156-24.516-11.672-48.047-16.172-62.906 2.9531 0.375 5.8594 0.60937 8.7188 0.60937 7.2656 0.046876 14.109-1.3125 20.109-4.4531zm9.0938-88.969c-10.125 9.3281-49.922-12.562-82.922-39.844 9.8438-24.609 21.422-41.625 32.156-41.625 15.422 0 39.75 24.984 50.062 51.422 5.4375 13.969 5.7188 25.453 0.70312 30.047zm-21.891 18.469c11.578 23.625 14.906 41.484 9.0469 49.266-14.297 18.938-64.828-6.6094-91.359-24.422 3.0469-21.844 8.1562-44.344 14.531-64.125 15.891 12.609 43.594 32.484 67.781 39.281zm6.5625 562.13c-27.844-6.5156-41.297-95.672-42.797-163.55 0.28125 0 0.5625 0.046875 0.79688 0.046875 7.2188 0 13.828-2.5781 19.453-7.3594 4.0312 23.203 13.172 52.219 33.891 58.641 1.5 14.438 5.5781 47.906 13.219 81.844 0.98438 4.3594 1.9688 8.5312 3 12.609-9.7031 13.781-18.984 19.781-27.562 17.766zm84.141 45.984c-26.156 0-46.875-91.828-53.719-158.86 3.8438-1.5469 7.3594-3.8906 10.5-7.125 5.4375-5.625 9.375-13.641 12.188-22.547 12.141 50.438 26.672 77.812 44.625 84.281 3.5156 29.812 7.6406 56.109 12.328 78.891-6.0469 12.188-15.141 25.359-25.922 25.359zm96.844 58.125c-2.4375 3.4219-4.9219 5.2969-7.3125 5.625-1.9688 0.28125-5.1094 0.28125-9.3281-3-19.406-15.047-36.656-75.328-47.484-165.94 2.9531-1.5 5.6719-3.7031 8.0625-6.5156 5.3906-6.375 21.75-25.828 11.812-139.64-3.8438-43.828-10.172-85.219-12.562-100.17 3.9844-3.6094 6.9844-8.4375 8.9062-14.438 19.5-61.219-81.797-256.08-96.516-283.87-0.9375-4.3594-2.2969-8.9062-4.1719-13.688-11.906-30.562-41.203-63.562-67.781-63.562-49.734 0-71.297 124.97-74.344 158.44-1.2188 13.172-1.125 30.188-0.98438 49.875 0.32812 63.281 0.79688 149.95-41.109 193.92-31.172 32.672-97.031 38.672-146.81 37.969-12.469-0.1875-23.438-6.2812-30.094-16.781-6.6562-10.453-7.5938-22.969-2.4844-34.266 122.81-274.03 231.19-437.63 289.87-437.63 58.078 0 108.05 78.797 139.74 144.89 38.438 80.156 66.984 178.08 78.188 239.58 22.734 124.36 40.219 399.56 4.4062 449.21z" fill="#002046"/>
</svg>
