<?xml version="1.0" encoding="UTF-8"?>
<svg width="1200pt" height="1200pt" version="1.1" viewBox="0 0 1200 1200" xmlns="http://www.w3.org/2000/svg">
 <path d="m1047.7 864.28c-11.297-10.031-26.344-14.203-41.391-11.438-52.875 9.7031-127.13-2.9062-185.16-16.922l45.094-4.1719c45.047-3.7969 53.719-67.406 12.656-83.906l80.531-43.359c15.703-9 24.422-26.484 22.172-44.438-2.2031-20.156-19.359-37.125-39.516-39.094 0 0 47.766-49.078 47.766-49.078 35.766-36.422-5.1094-97.172-52.359-77.484l17.344-27.281c31.5-47.062-10.922-113.02-66.375-104.02l35.766-52.875c31.031-43.875-8.0625-107.39-61.359-98.906 18.281-50.109 11.156-151.78-58.078-155.11-20.625 0-39.141 11.391-48.422 29.766-31.781 62.906-66.703 161.58-94.781 248.39-2.2969-7.5938-6.0938-14.859-11.766-21.375-17.344-20.016-46.406-24.703-69.141-11.016-3.375 1.4531-5.9062 0.375-6.8438-3.2812-2.7656-14.156-5.4844-55.922-13.781-68.344-16.031-29.531-52.734-41.156-83.578-26.438-2.7188 1.3125-9.1875 5.2969-10.875 0.9375-16.266-52.5-54.188-82.734-83.156-98.812-31.547-18.844-75.188 6.7969-74.344 43.547-1.2656 47.859-1.3125 144.37 2.625 187.64 5.4844 76.125 49.031 253.6 65.719 319.64-42.516-2.2969-73.922-11.438-110.16-0.42188-89.391 27.75-99.562 106.92-99.75 139.69 0.84375 20.719-13.031 43.031-25.5 58.641-13.219 16.594 2.25 43.031 23.438 39.047 39.844-5.5312 89.484-20.062 125.39 6.1406 12.75 7.3594 22.781 14.391 33.891 26.484 124.87 135.66 303.56 83.344 311.02 81.094 105.28-31.266 159.56 40.547 186.47 106.27 5.5781 13.594 16.875 23.766 30.984 27.891 14.016 4.1719 29.203 1.7344 41.297-6.7031 134.26-93.75 166.6-177.79 170.11-231.79 0.9375-14.859-4.875-29.062-15.984-38.953zm-703.18-612.19 1.1719-102.05c0.09375-6.6094 4.5469-9.9375 6.4688-11.016 1.8281-1.0781 6.6562-3.2344 12.188-0.1875 33.422 18.562 55.453 44.484 65.531 77.109 7.5 26.156 40.594 36.047 62.859 21.844 15.984-7.9219 35.016 1.875 37.312 19.078l6.7969 47.25c2.0156 13.969 10.828 25.922 23.578 32.016 12.75 6.0469 27.562 5.3438 39.703-1.9219 11.625-7.125 27.234 2.7188 26.812 17.531l9 69.844c-7.4531 34.641-10.828 69.375-24.703 102.14-33 79.922-109.78 131.68-195.56 134.68-23.156-92.156-75.188-292.97-71.109-406.26zm609.61 783.52-61.828-34.969c-21.703-11.859-39.656 20.25-18.469 32.625l51.75 29.297c-15.469 13.5-33 27.422-53.484 41.719-6.6562 4.0312-12.609 1.9688-16.078-4.6406-18.375-44.906-68.812-137.21-172.55-137.21-18.141 0-37.875 2.8125-59.344 9.1875-6.6562 1.9688-163.97 47.531-272.63-70.547-35.25-37.031-84.375-61.078-134.9-52.969l-28.219 4.2188c10.219-17.391 15.656-36.609 15.797-55.922 0.23438-37.172 13.172-85.453 73.359-104.11 38.391-9.7969 78.234 3.9844 124.69 3.6094 138.14 5.0156 251.06-104.16 264.98-238.64 22.219-106.31 74.719-250.64 122.72-354.42 4.2188-8.25 11.766-9.1406 15-9.1406 6.9375 0.046875 12.891 3.75 15.984 9.9844 15.984 32.297 17.859 65.391 5.5312 98.25-4.5 12-2.1562 25.453 6.1406 35.203 8.25 9.6562 21.094 14.203 33.797 11.578 10.266-2.0625 20.625 2.1562 26.625 10.688 6.2344 8.8594 6.3281 20.812 0.23438 29.766l-40.734 60.188c-8.0156 11.859-7.8281 27.047 0.46875 38.672s22.594 16.734 36.469 12.984c15.844-4.3125 32.203 4.5469 37.172 20.25 2.7188 8.625 1.5 18-3.3281 25.641l-32.156 50.578c-16.078 23.438 11.531 54.984 36.891 42.375l23.438-10.688c3.8438-1.7344 7.1719-0.65625 8.8125 0.14062 5.0156 1.875 8.25 11.578 2.8125 16.312 0 0-62.766 64.547-62.766 64.547-20.438 19.594-0.51562 56.156 27 49.688 6.1406-1.2656 15.703-4.5 17.203 4.6875 0.375 2.9531-1.0781 5.8594-3.1875 7.0781l-135.79 73.078c-16.547 8.2031-10.5 34.969 7.9688 35.25l48.562 2.2969c7.5-0.375 8.625 11.484 0.79688 12.094l-126.61 11.766c-23.766 1.6875-27.703 36.609-4.8281 43.5 54.609 17.578 191.44 56.719 281.81 40.078 26.719-2.4844 6.0469 48.047-4.1719 70.969l-66.375-32.812c-22.359-10.641-38.438 22.453-16.594 33.609l63.75 31.5c-9.3281 13.406-21.047 27.656-35.531 42.656z" fill="#002046"/>
 <path d="m431.29 321.28c10.125-6.7969 24.422-3.5625 26.344 9.2812l5.2031 36.094c2.8594 25.172 33.656 39.797 54.984 26.156 3.5156-2.1094 8.1094-1.4062 11.391 2.3438 3.7031 3 8.1562 58.453 9.6562 63.703 1.2656 10.312 10.922 17.578 21 16.219 10.266-1.3125 17.531-10.734 16.219-21l-7.0312-54c-0.28125-10.828-4.3594-21.281-12-30.094-14.672-16.922-39.281-20.859-57.047-8.6719l-5.2031-36.094c-4.4062-34.734-43.875-55.547-75.469-39.797-26.438 8.5312-13.875 46.172 12 35.812z" fill="#002046"/>
 <path d="m767.29 312.28 17.203-22.594c8.8594-11.484 26.484-0.46875 20.578 12.422l-54.094 116.34c-3.1875 6.8438-1.9219 15 3.1875 20.578 5.1562 5.625 13.078 7.5469 20.203 4.9688l35.953-13.031c8.9062-3.5625 17.344 7.7812 11.297 15.281 0 0-51.938 69.188-51.938 69.188-4.7344 6.3281-5.0156 14.953-0.65625 21.562s12.375 9.8438 20.062 7.9219l39.328-9.4219c10.266-2.7656 18.75 10.125 12.047 18.375l-58.875 78.281c-11.578 14.391 5.1562 36.188 22.125 28.641l25.312-10.359c5.625-2.5781 9.6094 6.375 4.0781 8.9531l-31.078 15.516c-9.2812 4.6406-13.031 15.891-8.3906 25.172 4.6406 9.3281 16.078 12.984 25.172 8.3906l31.078-15.516c34.5-16.453 28.969-69.703-7.7344-78.844 0 0 28.312-37.641 28.312-37.641 25.172-30.984-1.0781-81.328-40.5-78.703l21.703-28.922c26.719-33.844-6.375-84.797-47.906-74.859 0 0 35.344-76.031 35.344-76.031 16.172-32.484-11.438-73.594-47.812-70.453-25.125-0.14062-40.641 24.188-53.859 42.047-14.719 19.688 14.906 42.094 29.859 22.734z" fill="#002046"/>
 <path d="m258.52 755.02c-24.656 0.42188-24.656 37.078 0 37.5 24.656-0.42188 24.656-37.078 0-37.5z" fill="#002046"/>
</svg>
