<?xml version="1.0" encoding="UTF-8"?>
<svg width="1200pt" height="1200pt" version="1.1" viewBox="0 0 1200 1200" xmlns="http://www.w3.org/2000/svg">
 <path d="m242.81 1134.6c-32.438-15-61.312-32.625-85.312-52.312-2.625-2.25-3.9375-5.25-3.375-7.875 8.4375-42 42-86.812 99.375-133.13l3.375-2.8125-11.438 197.26z" fill="#0a94cd"/>
 <path d="m254.63 942.56-11.062 190.13c-32.25-15-60.938-32.438-84.938-51.938-2.0625-1.6875-3.1875-4.125-2.8125-6 8.4375-41.625 41.625-85.875 98.812-132.19z" fill="#0a94cd"/>
 <path d="m958.69 950.26 3.5625 3c45.562 39.188 73.5 77.438 83.25 113.25 1.875 7.6875 0.1875 15.75-4.3125 20.438-18.188 16.875-41.25 32.25-68.812 45.562l-2.625 1.3125z" fill="#0a94cd"/>
 <path d="m1039.5 1085.6c-18 16.688-40.875 31.875-68.438 45.188l-10.312-176.06c45.375 39.188 73.125 76.875 82.5 112.31 1.875 7.125 0.375 14.438-3.75 18.562z" fill="#0a94cd"/>
 <path d="m643.5 1195.1c116.25-112.31 202.87-209.63 264.94-297.37l3.1875-0.5625-1.5-1.125c3.5625-5.0625 7.3125-10.5 10.875-15.75l6.1875-9.1875 16.125 273.94-1.3125 0.5625c-50.25 19.312-113.62 33.75-193.87 44.25-33.75 4.3125-67.5 7.125-103.12 8.625l-5.0625 0.1875z" fill="#0a94cd"/>
 <path d="m941.26 1143.7c-50.25 19.312-113.62 33.75-193.31 44.25-32.25 4.125-66 6.9375-102.94 8.625 115.69-111.75 202.87-209.63 265.31-297.56l0.9375-0.9375 0.5625-0.75c4.6875-6.5625 9.375-13.688 13.875-20.25z" fill="#0a94cd"/>
 <path d="m565.69 1200c-43.5-0.75-85.312-4.125-124.5-9.9375-62.625-9.375-119.25-23.625-168.19-42.562l-1.3125-0.5625 15.938-275.63 3.1875 4.6875c2.8125 4.3125 5.8125 8.25 8.4375 11.812l0.1875 0.1875 0.75 1.6875c66.75 96.562 156.37 199.87 266.81 307.13l3.5625 3.1875z" fill="#0a94cd"/>
 <path d="m565.69 1197.9c-43.312-0.75-84.938-4.125-124.31-9.9375-63-9.375-119.44-23.812-167.63-42.375l15.562-268.5c3 4.3125 5.8125 8.4375 8.625 11.812l0.5625 1.3125 0.375 0.5625c66.75 96.75 156.56 200.06 266.81 307.13z" fill="#0a94cd"/>
 <path d="m873.74 460.87c-9.75 0-17.438 7.875-17.438 17.812 0 9.75 7.875 17.438 17.438 17.438 9.75 0 17.812-7.875 17.812-17.438 0-9.9375-8.0625-17.812-17.812-17.812z" fill="#0a94cd"/>
 <path d="m896.06 382.13c-7.6875-10.312-21.75-17.438-40.5-20.812l-1.875-0.375-18.938 89.25 3.375 1.5c8.4375-11.438 21.562-18 35.625-18 6.375 0 12.938 1.5 19.125 4.125l1.6875 0.75 0.75-1.6875c1.6875-3.5625 3.5625-7.5 5.25-11.812 4.875-17.438 3.375-32.438-4.5-42.938z" fill="#0a94cd"/>
 <path d="m798 493.13 0.75-2.625 28.5-140.06c-47.438-45.75-63-122.63-63.188-123.37-6.375-37.875-29.062-56.25-42-63.938-3.1875-1.875-6.9375-3-10.688-3-1.125 0-2.4375 0.1875-3.375 0.375-140.63 23.25-248.06 78-319.87 162.56-12.938 15.375-19.125 35.812-17.062 56.25 6.1875 59.062 17.625 108.56 34.875 151.69 14.438 35.25 38.625 64.875 69.938 85.875 26.062 17.438 53.438 32.625 81 45 12.75 5.8125 27 9 41.438 9 12.375 0 24.375-2.25 35.625-6.5625 27-10.688 50.25-21.938 69.188-33.562 47.438-28.875 81.938-78.938 94.875-137.63z" fill="#0a94cd"/>
 <path d="m702.56 714.19c8.625 26.625 25.688 51 49.312 70.5l1.125 0.9375 1.125-0.75c60-34.875 104.81-139.87 111.56-261l0.1875-1.6875-1.5-0.375c-7.875-1.875-15-5.625-20.812-11.062l-1.125-0.5625-0.9375 0.1875c-2.8125 0.375-5.625 0.75-8.625 0.75s-6.375-0.1875-9.75-0.5625l-1.6875-0.1875-0.375 1.6875c-16.688 60.188-54.375 111.75-103.69 141.56-7.5 4.5-15.562 9-23.812 13.125l-1.3125 0.5625 0.1875 1.3125c2.0625 15.562 5.4375 30.938 10.125 45.562z" fill="#0a94cd"/>
 <path d="m769.13 828.56c-10.312-5.4375-18.375-10.312-25.312-15.562-32.062-23.25-55.312-54.562-67.125-90.375-4.125-12.938-7.3125-26.625-9.75-40.688l-0.5625-2.4375-2.25 0.9375c-6.75 2.8125-13.5 5.8125-20.625 8.4375-14.25 5.8125-29.438 8.625-45.188 8.625-17.812 0-36-3.9375-52.5-11.25-2.0625-0.9375-4.125-1.875-6.1875-3l-5.4375-2.8125-0.375 2.625c-2.4375 14.062-5.625 27.188-9.5625 39-14.812 45.188-47.625 83.25-92.625 106.69-32.812 16.875-66.188 35.625-98.812 56.062l-1.6875 1.125 1.125 1.6875c65.438 92.25 151.31 190.31 255.56 291.37l3.375 3.1875v-109.31c0-7.3125 6.1875-13.5 13.5-13.5s13.688 6.1875 13.688 13.5v109.5l3.375-3.1875c110.25-106.31 194.26-199.69 256.69-285.37l1.125-1.6875-1.6875-1.125c-32.438-20.812-69-41.812-108.75-62.438z" fill="#0a94cd"/>
 <path d="m498.56 713.81c4.5-13.688 8.0625-29.25 9.9375-45l0.1875-1.3125-1.125-0.5625c-17.438-9.375-32.812-18.562-46.688-27.75-36-24-63.562-57.938-79.688-98.25-18.188-44.625-30.188-96.562-36.938-158.81-2.8125-27.938 5.625-55.688 23.25-76.5 76.125-89.625 189.19-147.37 336-171.74 2.25-0.5625 4.875-0.75 7.6875-0.75 8.625 0 17.062 2.25 24.375 6.5625 17.062 9.9375 46.875 33.938 54.938 82.312 0.1875 0.75 15.75 72.562 58.5 111.19 3.1875 0.1875 11.625 1.125 22.875 4.3125l2.625 0.75-0.1875-2.625c-6.9375-142.87-30-286.13-226.31-329.63-17.062-3.9375-34.688-6-52.5-6-13.688 0-28.125 1.3125-44.25 4.125-83.625 15.188-147 49.688-188.26 102.56-41.625 53.062-63.375 126.56-64.312 219 3.1875 18.938 0.9375 69.375-30.188 124.5-14.062 24.562-33.188 44.812-51.938 63-20.625 20.25-50.812 65.625-20.625 142.5 2.0625 3 50.812 75.188 20.625 142.13-9.75 49.5-22.5 87.75-32.062 116.81-11.812 35.438-16.5 52.312-14.25 65.25l0.75 4.125 2.8125-3.1875c21.375-25.688 49.688-51.938 85.312-79.125l1.875-35.25c0.5625-11.25 7.875-20.438 18.75-23.438 2.625-0.5625 5.0625-0.9375 7.125-0.9375 8.8125 0 16.875 4.3125 21.75 11.812l6.9375 9.9375 1.5-0.9375c31.5-19.688 65.812-39.188 102.19-57.938 38.438-20.062 66.75-52.5 79.312-91.125z" fill="#0a94cd"/>
</svg>
