<?xml version="1.0" encoding="UTF-8"?>
<svg width="1200pt" height="1200pt" version="1.1" viewBox="0 0 1200 1200" xmlns="http://www.w3.org/2000/svg">
 <path d="m1123.3 429.19c-30.984-67.5-95.344-98.625-115.73-107.06-36.516-118.22-224.11-152.26-233.34-153.79-1.3125-0.23438-2.5781-0.23438-3.8906-0.14063h-0.14062c-63.844-43.453-171.84-74.203-268.6-21.938-7.4062 3.9844-14.344 8.2031-20.672 12.562-9.75-1.1719-170.11-18.188-252.84 101.06-1.3125 1.875-2.5781 3.8906-3.8906 5.7656-27.703 11.953-195.24 92.625-159.19 299.21 5.625 32.156 14.438 60.094 25.453 84.188-0.09375 0.14062 0 0.23438 0.14062 0.375 4.6875 19.125 96.984 374.95 363.32 412.5 17.25 2.3438 33.234 3.5156 48.234 3.5156 19.828 0 37.688-2.0156 54.141-5.625 14.438 4.3594 78.047 21.375 151.92 21.375 65.625 0 139.36-13.5 193.92-61.641 124.31-109.55 158.26-208.5 170.34-322.92 17.016-24.516 32.531-53.859 46.5-89.109 26.484-66.891 27.891-126.89 4.3125-178.31zm-139.92-103.78c2.8125 7.5 4.6875 15.375 5.7656 23.719 1.3125 9.375 1.4062 19.266 0.23438 29.578-6.7969 60-29.719 104.72-68.062 132.89-1.3125 1.0781-2.7188 2.0156-3.9844 2.9531-9.5156 6.4688-19.734 11.953-30.75 16.219-30.891 12.328-66.797 15.844-104.34 10.219 6.7969-5.5312 14.203-12.422 21.469-20.766 5.5312-6.4688 10.922-13.734 15.516-21.703 7.875-13.266 13.875-28.641 15.984-46.125 5.5312-7.6406 10.781-16.078 15.375-25.125 5.2969-10.547 9.8438-21.938 13.031-34.266 12.328-47.766 5.3906-109.41-49.172-184.31-2.0156-2.7188-4.125-5.3906-6.4688-8.1094 53.906 15.562 149.34 52.547 175.4 124.82zm-655.87 311.44c-2.3438-31.688-13.734-67.594-27.469-101.53 7.4062 6.9375 13.5 12.188 17.625 15.516 3.5156 3.5156 7.7344 6.4688 12.422 8.5781 30.984 13.734 65.484 36.984 103.31 69.141 3.6562 3.0469 7.2656 6.2344 10.922 9.5156 2.25 2.0156 4.4531 3.9844 6.7031 6 9.0469 8.1094 18.188 16.688 27.562 25.828 7.9688 7.7344 16.078 15.844 24.281 24.281 35.812 36.844 73.969 59.859 109.55 74.203-101.06 24.656-236.21 17.016-290.06 12.656-3.6562-0.23438-6.9375-0.60938-9.8438-0.84375 1.7812-7.1719 3.9844-17.016 6.0938-29.484 3.8906-22.078 7.7344-52.359 9.1406-90.375 0.14062-2.25 0.14062-4.5938 0.23438-6.9375 0.14062-5.3906 0-10.922-0.46875-16.547zm202.26 50.953c-3.4219-3.1875-6.7969-6.4688-10.078-9.9844-9.75-9.9844-19.266-19.5-28.547-28.547-8.2031-7.875-16.219-15.281-24.047-22.406-5.8594-5.3906-11.719-10.547-17.484-15.516-39.094-33.328-75-57.656-107.62-72.422-0.70312-0.375-1.5469-0.70312-2.25-1.0781-7.7344-3.4219-12.188-11.391-11.625-19.359 0-1.7812 0.32812-3.6562 1.0312-5.3906 1.5469-4.125 3.0469-7.9688 4.5938-11.719 0.84375 2.1094 1.7812 4.2188 2.8125 6.0938 1.6406 2.7188 3.4219 5.1562 5.5312 7.5 3.2812 3.6562 7.1719 6.7031 11.391 9.0469 13.359 7.875 30.656 9.8438 48.609 9.8438 4.6875 0 9.5156-0.14062 14.344-0.375 20.766-0.9375 49.406-2.0156 72.891-2.7188h0.14062c3.8906-0.23438 7.7344-0.32812 11.25-0.46875 15.281-0.46875 26.766-0.70312 29.953-0.9375h0.79688c0.70312 0 2.0156 0.14062 3.75 0.14062 3.9844 0.23438 10.453 0.60938 18.797 1.0781 44.625 2.8125 142.18 10.312 194.06 27.094 0.46875 0.14062 0.84375 0.23438 1.3125 0.375 0.60938 0.23438 1.1719 0.375 1.7812 0.46875 0.70312 0.23438 1.4062 0.375 2.1094 0.46875 7.7344 2.0156 15.516 3.5156 23.109 4.8281 13.5 2.1094 26.859 3.1875 40.031 3.1875 30.891 0 60.328-5.8594 86.297-17.484-13.359 34.266-39.188 92.859-75.938 143.34-6.0938 8.4375-12.562 16.688-19.359 24.422-9.9844 11.625-20.531 22.312-31.828 31.828-5.0625 4.2188-10.312 8.3438-15.609 11.953-2.3438 1.6406-4.6875 3.1875-7.1719 4.6875h-0.60938c-3.0469 0.46875-8.6719 0.9375-16.312 1.0781-11.25 0.375-27 0-45.562-2.4844-7.5-1.0781-15.516-2.3438-23.812-4.2188-1.875-0.375-3.75-0.84375-5.7656-1.3125-9.0469-2.25-18.422-4.9219-28.031-8.3438-33.094-11.484-69-30.75-102.94-62.672zm-65.25-308.02c0 4.3594 0.60938 8.6719 1.5469 12.797-2.5781-1.6406-5.1562-3.2812-7.5-5.0625-7.1719-4.9219-13.125-9.8438-18.328-14.672-2.0156-1.7812-3.8906-3.5156-5.5312-5.2969-4.4531-4.5938-8.1094-8.8125-11.016-12.562-1.875-2.25-3.2812-4.3594-4.5938-6.0938 3.4219-2.7188 6.7969-5.0625 10.219-7.4062 8.5781-5.625 17.156-10.219 25.594-13.828 1.5469-0.70312 3.0469-1.4062 4.5938-2.0156 6.7969-2.8125 13.359-5.0625 19.594-6.9375l6.7031-1.7812c-1.3125 1.6406-2.5781 3.2812-3.75 5.0625-1.3125 1.7812-2.4844 3.5156-3.6562 5.3906-4.125 6.4688-7.4062 13.266-9.6094 20.438-0.46875 1.5469-1.0781 3.1875-1.4062 4.8281-2.0156 7.4062-3.0469 15.047-3.0469 22.875v0.70312c-0.046875 1.2188-0.046875 2.3906 0.1875 3.5625zm-38.719 11.859c5.2969 4.6875 11.391 9.75 18.328 14.672 11.156 7.7344 24.422 15.516 40.031 22.406 13.734 15.984 33.938 27.938 58.828 34.406 0.14062 0.14062 0.23438 0.14062 0.32812 0.14062 3.6562 0.9375 7.2656 1.7812 11.016 2.4844 8.4375 1.6406 17.391 2.5781 26.766 3.0469 2.1094 0.14062 4.2188 0.14062 6.4688 0.14062h2.1094c1.3125 0 2.5781 0 3.75-0.14062l-0.70312 0.70312c-7.4062 7.875-15.984 14.812-25.219 20.438-1.0781 0.84375-2.1094 1.5469-3.1875 2.1094h-0.14062c-10.688 6.3281-22.312 11.156-34.641 14.109-0.9375 0-2.5781 0.14062-4.5938 0.14062-3.6562 0.14062-9.0469 0.23438-15.516 0.46875-4.8281 0.23438-10.219 0.375-16.078 0.60938-5.625 0.23438-11.719 0.375-17.953 0.60938-13.875 0.46875-28.547 0.9375-41.906 1.4062-6.4688 0.375-12.656 0.60938-18.188 0.84375-17.156 0.70312-35.344 0.60938-47.297-4.9219-3.4219-1.4062-6.2344-3.4219-8.4375-5.8594-3.0469-3.4219-5.0625-8.1094-5.8594-13.969-0.46875-2.1094-0.60938-4.4531-0.60938-7.0312-0.14062-4.125 0.23438-8.5781 0.9375-13.641 0.14062-0.70312 0.23438-1.3125 0.375-2.0156 0.46875-2.7188 1.0312-5.5312 1.7812-8.2031 1.1719-4.9219 2.7188-9.75 4.4531-14.672 2.9531-8.4375 6.7031-16.781 10.781-24.656 3.75-7.4062 7.7344-14.344 11.859-20.766 7.0312-11.25 13.969-20.906 19.359-27.938 5.1562 6.75 12.703 15.656 23.156 25.078zm288.05-57.656c11.484 4.2188 24.656 9.8438 37.547 17.156 7.875 4.5938 15.609 9.6094 22.781 15.281 18.094 14.203 32.531 32.391 36.609 55.406 0 0.23438 0.14062 0.46875 0.14062 0.70312 0.70312 4.4531 1.1719 8.8125 1.3125 13.031 0.23438 4.6875 0 9.1406-0.46875 13.5-0.375 3.4219-0.9375 6.7969-1.6406 9.9844-3.1875 13.828-9.375 25.922-16.688 36.141-3.9844 5.5312-8.3438 10.547-12.656 15.047-2.1094 2.25-4.2188 4.3594-6.3281 6.2344-2.9531 2.8125-5.8594 5.2969-8.5781 7.5-3.8906 3.1875-7.5 5.625-10.453 7.5-1.5469 1.1719-2.8125 2.0156-3.9844 2.7188-3.0469-0.9375-6.0938-1.7812-9.375-2.7188-46.5-12.328-114.56-19.031-160.69-22.406 6.9375-4.4531 13.5-9.375 19.594-14.812 7.1719-6.4688 13.594-13.5 19.5-21.141 2.0156-2.5781 3.9844-5.2969 5.8594-8.1094 25.359-5.3906 47.438-16.219 64.219-30.516 7.0312-6.2344 13.266-12.891 18.188-20.203 9.0469-13.5 14.203-28.547 14.203-44.625-0.046874-12.516-3.2344-24.609-9.0938-35.672zm-30.516 75c-6.3281 7.2656-14.438 13.734-23.953 19.125-5.625 3.1875-11.625 6-18.094 8.3438-9.1406 3.4219-19.125 5.8594-29.578 7.4062-4.3594 0.70312-8.9062 1.0781-13.5 1.3125-2.8125 0.14062-5.7656 0.23438-8.5781 0.23438-6.9375 0-13.5-0.375-19.828-1.1719-28.312-3.1875-51.047-13.359-65.484-28.406-8.4375-8.8125-13.969-19.359-15.844-31.125-0.14062-0.46875-0.14062-1.0312-0.14062-1.5469-0.46875-2.4844-0.60938-5.0625-0.60938-7.6406 0-5.3906 0.70312-10.922 2.25-16.219v-0.14062c1.4062-5.3906 3.6562-10.688 6.4688-15.75 1.6406-3.1875 3.5156-6.2344 5.7656-9.1406 4.8281-6.7031 10.922-13.031 18.188-18.422 4.125-3.1875 8.5781-6 13.359-8.5781 15.375-8.2031 34.172-13.266 55.875-13.266 28.641 0 54.844 7.5 74.297 20.062 7.0312 4.3594 13.266 9.5156 18.188 15.047 10.922 11.719 17.25 25.688 17.25 40.5 0.046875 14.531-5.8125 27.891-16.031 39.375zm-192.66-228.42c6.7031-4.8281 14.109-9.2812 22.078-13.641 88.406-47.766 189.94-17.25 247.13 22.641 8.6719 6 16.219 12.188 22.641 18.328 5.0625 4.9219 9.375 9.8438 12.797 14.578 50.25 68.812 62.906 131.95 37.219 187.82 0 0.14062-0.14062 0.23438-0.14062 0.375v-0.23438c-8.2031-31.688-31.219-55.078-56.812-71.953-7.4062-4.9219-15.141-9.2812-22.781-13.266-30.281-15.375-59.391-22.641-67.828-24.516-24.188-18.562-57.984-30.047-95.297-30.047-25.219 0-48.844 6.2344-68.531 17.156-5.8594 0.23438-20.766 1.3125-39.891 6.0938-7.4062 1.7812-15.516 4.2188-24.047 7.4062-13.641 5.1562-28.312 12.188-42.609 22.078 0.60938-28.031 8.3438-78.75 50.812-121.5 7.3125-7.4531 15.656-14.625 25.266-21.328zm-255.28 113.3c3.2812-6.7969 7.2656-13.734 11.953-20.531 0 0 0-0.14062 0.14062-0.14062 57.047-81.938 158.81-92.156 205.78-92.156-64.219 61.266-63.047 140.39-61.5 161.63-5.2969 6.2344-15.516 19.125-26.156 35.812-4.125 6.3281-8.2031 13.125-12.188 20.531-7.7344 14.109-14.672 29.812-19.031 45.891-0.14063 0.23437-0.32813 0.46875-0.46875 0.84375-3.5156 5.8594-7.1719 12.891-10.922 20.906-5.1562 10.922-10.453 23.812-15.75 38.391-0.46875 1.1719-0.84375 2.3438-1.1719 3.6562-12.797-12.562-27.703-28.875-41.344-47.906-0.14063-0.14062-0.23438-0.23437-0.375-0.46875-11.391-15.984-21.938-33.703-29.578-52.688-14.203-35.25-18.328-74.578 0.60938-113.77zm-125.53 340.78c-9.2812-21.375-16.688-45.797-21.609-73.828-27.328-155.9 68.672-232.08 119.02-260.72-14.812 42.047-8.5781 83.016 7.0312 119.39 0 0.23438 0.09375 0.46875 0.23438 0.70312 0.23438 0.9375 0.60938 1.875 1.1719 2.8125 0 0.14062 0.14062 0.23438 0.23438 0.375 7.6406 17.484 17.484 33.938 27.938 48.703 0.14062 0.23438 0.375 0.375 0.375 0.60938 23.953 44.953 54.938 111.98 59.625 164.02 0.60938 5.5312 0.70312 10.922 0.60938 16.078-0.14062 2.4844-0.14062 4.9219-0.23438 7.4062-2.3438 60.562-11.016 100.73-15.375 117.52-28.406-4.4531-115.88-25.828-167.53-119.48-4.0781-7.5-7.9219-15.375-11.484-23.578zm438.61 403.08c-25.688 5.1562-55.547 6-91.219 0.9375-176.21-24.844-273.66-206.34-316.74-314.48 63.984 66.797 143.34 76.781 154.82 77.812 0.23438 0 0.46875 0.14062 0.70313 0.14062 4.6875 0.60938 64.078 7.1719 138.66 7.1719 69.984 0 153.19-5.8594 217.18-28.172 1.7812 0.46875 3.5156 0.84375 5.1562 1.1719 8.2031 2.0156 16.078 3.5156 23.578 4.6875 17.859 2.8125 33.703 3.6562 46.266 3.6562 7.4062 0 13.734-0.23438 18.797-0.70312 20.297 5.2969 41.438 10.078 63.047 13.266-45.422 24.188-75.375 66.562-104.58 107.77-34.875 49.172-68.531 96.75-126.66 118.55-9.0938 3.4219-18.703 6.2344-29.016 8.2031zm338.16-35.766c-83.109 73.266-221.29 57.281-287.95 43.781 57.516-26.531 92.391-75.703 124.55-121.26 39.188-55.172 76.172-107.3 147.79-116.81 60.797-1.0781 121.36-20.062 173.02-75.375-15.328 93.328-52.922 177.52-157.4 269.68zm210.52-403.03c-12.797 32.391-27 59.625-42.375 82.312-6 8.8125-12.094 16.922-18.422 24.422-47.203 56.109-103.08 76.406-160.82 78.516-31.125 1.1719-62.906-3.0469-94.125-9.75 6.7031-5.0625 13.172-10.547 19.5-16.453 13.734-12.797 26.391-27.141 38.016-42.375 6.2344-7.875 12.094-16.078 17.484-24.281 45.562-67.594 71.953-142.18 77.953-160.13 43.781-31.828 70.922-83.484 78.281-149.76 1.1719-10.688 1.3125-20.906 0.46875-30.656 24.75 12.797 67.031 40.594 88.969 88.5 20.766 45.328 19.125 99-4.9219 159.66z" fill="#002046"/>
</svg>
