<?xml version="1.0" encoding="UTF-8"?>
<svg width="1200pt" height="1200pt" version="1.1" viewBox="0 0 1200 1200" xmlns="http://www.w3.org/2000/svg">
 <path d="m600 61.617-17.203 407.77-122.13-389.44 88.945 398.41-218.81-344.62 189.02 361.78-300.52-276.21 276.19 300.49-361.76-189 344.62 218.81-398.41-88.945 389.46 122.13-407.79 17.203 407.77 17.203-389.44 122.13 398.41-88.945-344.62 218.81 361.78-189.02-276.21 300.52 300.49-276.19-189 361.76 218.81-344.62-88.945 398.39 122.13-389.44 17.203 407.79 17.203-407.77 122.13 389.41-88.945-398.39 218.81 344.62-189.02-361.78 300.52 276.21-276.19-300.49 361.76 189-344.62-218.81 398.41 88.945-389.46-122.13 407.79-17.203-407.77-17.203 389.44-122.13-398.41 88.945 344.62-218.81-361.78 189.02 276.21-300.52-300.49 276.19 189-361.76-218.81 344.62 88.945-398.41-122.13 389.46z" fill="#0a94cd"/>
</svg>
